<svg xmlns="http://www.w3.org/2000/svg" width="27.104" height="27.736" viewBox="0 0 27.104 27.736">
  <g id="Component_47_2" data-name="Component 47 – 2" transform="translate(0.5 0.5)">
    <g id="Group_13540" data-name="Group 13540" transform="translate(6.955)">
      <path id="Path_1914" data-name="Path 1914" d="M2663.568,224.382h-1.661a5.272,5.272,0,0,1-5.265-5.266v-4.822a5.272,5.272,0,0,1,5.265-5.266h1.661a5.273,5.273,0,0,1,5.267,5.266v4.822A5.273,5.273,0,0,1,2663.568,224.382Zm-1.661-14.544a4.461,4.461,0,0,0-4.456,4.456v4.822a4.461,4.461,0,0,0,4.456,4.456h1.661a4.462,4.462,0,0,0,4.456-4.456v-4.822a4.462,4.462,0,0,0-4.456-4.456Z" transform="translate(-2656.642 -209.028)" fill="#4d4033" stroke="#4d4033" stroke-width="1"/>
    </g>
    <g id="Group_13543" data-name="Group 13543" transform="translate(0 15.808)">
      <g id="Group_13541" data-name="Group 13541" transform="translate(0 0.001)">
        <path id="Path_1915" data-name="Path 1915" d="M2568.06,422.2a.405.405,0,0,1-.406-.405c0-7.782,7.15-10.472,7.223-10.5a.405.405,0,0,1,.277.761c-.274.1-6.689,2.532-6.689,9.737A.406.406,0,0,1,2568.06,422.2Z" transform="translate(-2567.655 -411.277)" fill="#4d4033" stroke="#4d4033" stroke-width="1"/>
      </g>
      <g id="Group_13542" data-name="Group 13542" transform="translate(18.338 0)">
        <path id="Path_1916" data-name="Path 1916" d="M2809.617,422.2a.405.405,0,0,1-.406-.405c0-7.221-6.622-9.712-6.689-9.737a.405.405,0,0,1,.277-.762c.072.026,7.223,2.716,7.223,10.5A.406.406,0,0,1,2809.617,422.2Z" transform="translate(-2802.256 -411.268)" fill="#4d4033" stroke="#4d4033" stroke-width="1"/>
      </g>
    </g>
  </g>
</svg>
