<svg xmlns="http://www.w3.org/2000/svg" width="41.011" height="23.803" viewBox="0 0 41.011 23.803">
  <g id="Group_13560" data-name="Group 13560" transform="translate(1.086 0.5)">
    <path id="Path_1929" data-name="Path 1929" d="M1185.756,517.8h-6.462a23.259,23.259,0,0,0-12.955-3.6,24.339,24.339,0,0,0-13.268,3.6h-6.155a8.985,8.985,0,0,1,1.932,3.853,9.666,9.666,0,0,0,15.326,11.771,24.429,24.429,0,0,1,2.162,3.037s1.388-2.073,2.168-3.03a9.665,9.665,0,0,0,15.32-11.775A9,9,0,0,1,1185.756,517.8Zm-29.088,17.315a7.783,7.783,0,1,1,7.784-7.784A7.784,7.784,0,0,1,1156.668,535.115Zm.015-17.449a24.747,24.747,0,0,1,9.656-1.856,23.244,23.244,0,0,1,9.364,1.862,9.667,9.667,0,0,0-9.367,9.658A9.667,9.667,0,0,0,1156.683,517.666ZM1176,535.115a7.783,7.783,0,1,1,7.783-7.784A7.782,7.782,0,0,1,1176,535.115Z" transform="translate(-1146.916 -514.197)" fill="#4d4033" stroke="#4d4033" stroke-width="1"/>
    <path id="Path_1930" data-name="Path 1930" d="M1464.436,1046.4a4.693,4.693,0,1,0,4.693,4.693A4.693,4.693,0,0,0,1464.436,1046.4Zm0,7.945a3.252,3.252,0,1,1,3.253-3.251A3.251,3.251,0,0,1,1464.436,1054.346Z" transform="translate(-1454.796 -1037.983)" fill="#4d4033" stroke="#4d4033" stroke-width="1"/>
    <path id="Path_1931" data-name="Path 1931" d="M2693.78,1045.075a4.693,4.693,0,1,0,4.692,4.692A4.692,4.692,0,0,0,2693.78,1045.075Zm0,7.945a3.253,3.253,0,1,1,3.251-3.253A3.253,3.253,0,0,1,2693.78,1053.02Z" transform="translate(-2664.695 -1036.678)" fill="#4d4033" stroke="#4d4033" stroke-width="1"/>
  </g>
</svg>
