<svg xmlns="http://www.w3.org/2000/svg" width="35.78" height="35.779" viewBox="0 0 35.78 35.779">
  <g id="Component_66_1" data-name="Component 66 – 1" transform="translate(0.5 0.5)">
    <g id="Group_13551" data-name="Group 13551">
      <path id="Path_1920" data-name="Path 1920" d="M724.552,1270.3H701.4a5.819,5.819,0,0,1-5.812-5.812v-23.154a5.819,5.819,0,0,1,5.812-5.812h23.155a5.819,5.819,0,0,1,5.813,5.813v23.154A5.819,5.819,0,0,1,724.552,1270.3ZM701.4,1237.428a3.914,3.914,0,0,0-3.91,3.91v23.154a3.914,3.914,0,0,0,3.91,3.91h23.155a3.914,3.914,0,0,0,3.91-3.91v-23.154a3.914,3.914,0,0,0-3.91-3.91Z" transform="translate(-695.585 -1235.525)" fill="#4d4033" stroke="#4d4033" stroke-width="1"/>
    </g>
    <g id="Group_13552" data-name="Group 13552" transform="translate(8.466 8.467)">
      <path id="Path_1921" data-name="Path 1921" d="M763.778,1312.642a8.923,8.923,0,1,1,6.31-2.614A8.866,8.866,0,0,1,763.778,1312.642Zm0-15.945a7.021,7.021,0,1,0,7.021,7.021A7.029,7.029,0,0,0,763.778,1296.7Z" transform="translate(-754.854 -1294.795)" fill="#4d4033" stroke="#4d4033" stroke-width="1"/>
    </g>
    <ellipse id="Ellipse_26" data-name="Ellipse 26" cx="1.712" cy="1.712" rx="1.712" ry="1.712" transform="translate(26.226 3.906) rotate(-22.5)" fill="#4d4033" stroke="#4d4033" stroke-width="1"/>
  </g>
</svg>
