<svg xmlns="http://www.w3.org/2000/svg" width="31.094" height="31.092" viewBox="0 0 31.094 31.092">
  <g id="Component_71_1" data-name="Component 71 – 1" transform="translate(0.5 0.5)">
    <rect id="Rectangle_62" data-name="Rectangle 62" width="6.292" height="20.062" transform="translate(0.502 9.893)" fill="#4d4033" stroke="#4d4033" stroke-width="1"/>
    <path id="Path_1924" data-name="Path 1924" d="M1921.5,1318.274c-.237-.026-.481-.045-.729-.055a7.341,7.341,0,0,0-6.2,2.839,4.458,4.458,0,0,0-.273.393v-2.685h-6.019v20.062h6.292V1329.4a8.189,8.189,0,0,1,.575-4.052,3.07,3.07,0,0,1,2.8-1.569,3.336,3.336,0,0,1,3.557,3.443v11.7h6.292v-13.086C1927.8,1321.356,1925.52,1318.708,1921.5,1318.274Z" transform="translate(-1897.703 -1308.828)" fill="#4d4033" stroke="#4d4033" stroke-width="1"/>
    <ellipse id="Ellipse_27" data-name="Ellipse 27" cx="3.648" cy="3.648" rx="3.648" ry="3.648" fill="#4d4033" stroke="#4d4033" stroke-width="1"/>
  </g>
</svg>
