<svg xmlns="http://www.w3.org/2000/svg" width="27.624" height="27.624" viewBox="0 0 27.624 27.624">
  <path id="Path_1912" data-name="Path 1912" d="M2002.328,954.891a13.812,13.812,0,1,0-13.811-13.812A13.831,13.831,0,0,0,2002.328,954.891Zm3.771-1.92a12.371,12.371,0,0,0,2.31-4.122,22.307,22.307,0,0,1,2.793.987A12.487,12.487,0,0,1,2006.1,952.971Zm6.031-4.189a23.827,23.827,0,0,0-3.323-1.208,24.153,24.153,0,0,0,.823-5.826h5.152A12.416,12.416,0,0,1,2012.131,948.782Zm2.653-8.371h-5.152a24.153,24.153,0,0,0-.823-5.826,23.789,23.789,0,0,0,3.323-1.208A12.4,12.4,0,0,1,2014.784,940.411Zm-3.581-8.089a22.286,22.286,0,0,1-2.793.987,12.372,12.372,0,0,0-2.31-4.121A12.486,12.486,0,0,1,2011.2,932.322ZM2003,928.688c1.648.4,3.117,2.272,4.089,4.947a22.526,22.526,0,0,1-4.089.492Zm0,6.776a23.835,23.835,0,0,0,4.5-.549,22.8,22.8,0,0,1,.8,5.5H2003Zm0,6.283h5.3a22.8,22.8,0,0,1-.8,5.5,23.839,23.839,0,0,0-4.5-.549Zm0,6.284a22.547,22.547,0,0,1,4.089.492c-.972,2.675-2.441,4.543-4.089,4.947Zm-9.543,1.805a22.373,22.373,0,0,1,2.794-.987,12.371,12.371,0,0,0,2.31,4.122A12.5,12.5,0,0,1,1993.454,949.836Zm8.207,3.634c-1.648-.4-3.117-2.272-4.089-4.947a22.553,22.553,0,0,1,4.089-.492Zm0-6.776a23.854,23.854,0,0,0-4.5.549,22.817,22.817,0,0,1-.8-5.5h5.3Zm0-6.284h-5.3a22.813,22.813,0,0,1,.8-5.5,23.844,23.844,0,0,0,4.5.549Zm0-11.723v5.439a22.531,22.531,0,0,1-4.089-.492C1998.543,930.96,2000.013,929.091,2001.661,928.688Zm-3.1.5a12.364,12.364,0,0,0-2.31,4.121,22.351,22.351,0,0,1-2.794-.987A12.492,12.492,0,0,1,1998.558,929.188Zm-6.032,4.188a23.8,23.8,0,0,0,3.323,1.208,24.2,24.2,0,0,0-.824,5.826h-5.152A12.424,12.424,0,0,1,1992.526,933.376Zm2.5,8.371a24.2,24.2,0,0,0,.824,5.826,23.811,23.811,0,0,0-3.323,1.208,12.42,12.42,0,0,1-2.652-7.035Z" transform="translate(-1988.517 -927.267)" fill="#4d4033"/>
</svg>
