<svg id="Icon_simple-tiktok" data-name="Icon simple-tiktok" xmlns="http://www.w3.org/2000/svg" width="26.637" height="30.66" viewBox="0 0 26.637 30.66">
  <path id="Icon_simple-tiktok-2" data-name="Icon simple-tiktok" d="M16.358.026C18.032,0,19.693.013,21.353,0a7.957,7.957,0,0,0,2.236,5.327,9.009,9.009,0,0,0,5.417,2.287v5.148a13.674,13.674,0,0,1-5.366-1.239,15.784,15.784,0,0,1-2.07-1.188c-.013,3.73.013,7.46-.026,11.178a9.757,9.757,0,0,1-1.725,5.033,9.518,9.518,0,0,1-7.55,4.1,9.315,9.315,0,0,1-5.212-1.316A9.633,9.633,0,0,1,2.4,22.036c-.026-.639-.038-1.277-.013-1.9A9.617,9.617,0,0,1,13.535,11.6c.026,1.891-.051,3.781-.051,5.672a4.383,4.383,0,0,0-5.6,2.708,5.068,5.068,0,0,0-.179,2.057A4.348,4.348,0,0,0,12.181,25.7a4.292,4.292,0,0,0,3.539-2.057,2.947,2.947,0,0,0,.524-1.354c.128-2.287.077-4.561.089-6.847.013-5.148-.013-10.284.026-15.419Z" transform="translate(-2.369)" fill="#4d4033"/>
</svg>
