<svg xmlns="http://www.w3.org/2000/svg" width="33.375" height="28.416" viewBox="0 0 33.375 28.416">
  <g id="Component_68_1" data-name="Component 68 – 1" transform="translate(1.522 0.549)">
    <path id="Path_1922" data-name="Path 1922" d="M1270.958,1286.836a13.467,13.467,0,0,0,9.13-2.673c-2.883-.492-4.887-1.806-5.978-4.543a9.481,9.481,0,0,0,2.452-.24c-2.839-1.244-4.677-3.115-4.753-6.348.894.079,1.576.661,2.649.584-2.616-2.555-3.409-5.33-1.766-8.715a19.064,19.064,0,0,0,9.808,6.257c.211.054.423.113.634.162a12.948,12.948,0,0,0,2.8.652c1.05-.131,0-1.335.267-2.9a6.4,6.4,0,0,1,10.159-4.229,2.862,2.862,0,0,0,3.213.316c.6-.266,1.2-.519,1.911-.824-.163,1.4-1.227,2.155-2.082,3.194a4.748,4.748,0,0,0,2.647-.341,4.437,4.437,0,0,1-1.735,2.121,2.488,2.488,0,0,0-1.015,2.087c-.438,14.042-16.392,24.906-27.3,16.259C1270.94,1286.817,1271.97,1287.656,1270.958,1286.836Z" transform="translate(-1270.958 -1263.577)" fill="#4d4033" stroke="#4d4033" stroke-width="1"/>
  </g>
</svg>
