<svg xmlns="http://www.w3.org/2000/svg" width="33.788" height="33.955" viewBox="0 0 33.788 33.955">
  <g id="Component_69_1" data-name="Component 69 – 1" transform="translate(0.5 0.5)">
    <path id="Path_1917" data-name="Path 1917" d="M4652.461,1244.711a15.328,15.328,0,0,0-3.525-4.9,16.449,16.449,0,0,0-5.208-3.287,17.431,17.431,0,0,0-12.725,0,16.443,16.443,0,0,0-5.208,3.287,15.328,15.328,0,0,0-3.525,4.9,14.5,14.5,0,0,0-1.3,6.014,14.825,14.825,0,0,0,3.865,9.931l-1.337,7.282,7.119-3.175a17.419,17.419,0,0,0,13.11.158,16.451,16.451,0,0,0,5.208-3.287,15.332,15.332,0,0,0,3.525-4.9,14.586,14.586,0,0,0,0-12.029Zm-15.1,19.6a15.32,15.32,0,0,1-6.376-1.365l-.371-.168-4.72,2.1.882-4.8-.318-.334a13.053,13.053,0,0,1-3.682-9.025c0-7.493,6.542-13.59,14.584-13.59s14.585,6.1,14.585,13.59S4645.407,1264.315,4637.365,1264.315Z" transform="translate(-4620.971 -1235.326)" fill="#4d4033" stroke="#4d4033" stroke-width="1"/>
    <path id="Path_1918" data-name="Path 1918" d="M4697.97,1308.4c-.7-.343-1.205-.562-1.571-.7-.233-.085-.763-.322-.953-.17-.59.485-1.215,1.841-1.881,2.1a9.381,9.381,0,0,1-4.394-2.624,15.287,15.287,0,0,1-1.736-2.341c-.035-.4.68-.935.837-1.238.832-.939.2-1.518.092-1.913-.185-.4-.51-1.118-.789-1.715-.237-.39-.291-.959-.728-1.179-1.825-.94-2.865.936-3.294,1.915-2.578,6.212,12.934,18.051,16.09,9.9.159-.712.1-.974-.152-1.3A13.532,13.532,0,0,0,4697.97,1308.4Z" transform="translate(-4674.936 -1289.932)" fill="#4d4033" stroke="#4d4033" stroke-width="1"/>
  </g>
</svg>
